<svg viewBox="0 0 512 512" xmlns="http://www.w3.org/2000/svg"><path fill="#0038A8" d="M0 341h512v171H0Z"/><path fill="#FFF" d="M0 170.7h512v170.6H0Z"/><path fill="#D52B1E" d="M0 0h512v170.7H0Z"/><g transform="translate(-209 0) scale(1.55152)"><circle cx="300" cy="165" r="42.2" fill="none" stroke="#000" stroke-width="1.1"/><circle cx="300" cy="165" r="34.7" fill="none" stroke="#000" stroke-width=".5"/><circle cx="300" cy="165" r="26.6" fill="none" stroke="#000" stroke-width=".4"/></g><path d="M221.6 281.3l-7.6 4.5 -2.3-4v0c-.35-.53-.62-1.1-.8-1.7v0c-.09-.45-.02-.91.2-1.3 .2-.5.5-.8 1-1.1v0c.72-.47 1.63-.5 2.4-.1l.8.6v0c-.04-.24-.04-.47 0-.7l.1-.6 .3-.7 1.5-2.4 1.6 2.6 -1.6 2.7v0c-.16.24-.26.51-.3.8v0c-.03.2.01.41.1.6l.2.2 3-1.8Zm-5.9.3l-.6-1h-.001c-.12-.21-.26-.41-.4-.6v0c-.14-.14-.32-.21-.5-.2h-.001c-.18-.03-.35.01-.5.1 -.3.2-.4.3-.5.6l.4 1 .6 1Zm-7.1-5.9l-2.3-7 1.8-.5 1.4 4.3 1.3-.4 -1.3-4 1.7-.6 1.3 4 1.7-.5 -1.5-4.5 2-.6 2.3 7Zm-3-10.3l-.6-4.5c0-1 0-1.8.5-2.3 .4-.5 1-.9 1.9-1 .9 0 1.6.1 2.2.6 .5.5.9 1.3 1 2.4l.2 1.4 3.2-.3 .3 2.7Zm3.4-3.1l-.1-.7c0-.5-.2-.9-.4-1v0c-.18-.2-.44-.31-.7-.3v0c-.27 0-.52.11-.7.3 -.2.2-.2.6-.2 1.1l.1.8Zm-3.7-13.5l.3-2.7 5.2.6c.5 0 1 .2 1.4.4 .5.2.9.5 1.2.9l.6 1.2v0c.15.62.15 1.27 0 1.9 0 .4 0 .9-.2 1.4 0 .5-.2.9-.5 1.2l-.8.8h-.001c-.33.24-.71.41-1.1.5 -.6.1-1 .2-1.5.1l-5.2-.6 .3-2.7 5.3.6c.5 0 .9 0 1.2-.3 .3-.2.4-.6.5-1v0c.07-.43-.04-.87-.3-1.2 -.2-.3-.6-.4-1-.5Zm1.1-6.4l1.7-4.9c.3-.8.7-1.3 1.3-1.6v0c.52-.29 1.14-.33 1.7-.1v-.001c.82.3 1.35 1.11 1.3 2 .4-.6.8-1 1.2-1v0c.48-.2 1.01-.2 1.5 0v0c.81.26 1.42.95 1.6 1.8v1l-.4 1.2 -1.5 4.5Zm4.2-1.5l.4-1.1c.2-.4.2-.7.1-1 0-.1-.2-.3-.5-.4v0c-.23-.11-.48-.11-.7 0l-.5.8 -.4 1.2Zm3.3 1.2l.5-1.4v-1 0c-.08-.24-.27-.43-.5-.5v0c-.23-.11-.48-.11-.7 0 -.2.2-.4.5-.5 1l-.5 1.3Zm-3.3-10.3l1.4-2.4 5.7 3.4 2.2-3.6 1.9 1.1 -3.6 6Zm5.4-8.1l1.7-2.1 6.8 5.6 -1.8 2.1Zm11.8-4.6l2.3-1c.3.6.5 1.2.5 1.8v0c.03.55-.07 1.1-.3 1.6v0c-.3.57-.71 1.08-1.2 1.5v0c-.58.53-1.26.94-2 1.2 -.7.2-1.4.2-2.2 0h0c-.92-.34-1.72-.93-2.3-1.7 -1-1-1.4-2.2-1.3-3.3 0-1.1.6-2.1 1.7-3v-.001c.65-.64 1.49-1.06 2.4-1.2v0c.87-.09 1.75.13 2.5.6l-1.5 2v0c-.19-.14-.39-.24-.6-.3v0c-.24-.06-.47-.06-.7 0l-.001 0c-.27.07-.51.2-.7.4 -.5.4-.7.9-.6 1.5 0 .4.3 1 .9 1.5 .6.8 1.2 1.2 1.6 1.3 .5 0 .9 0 1.3-.4s.6-.7.6-1.1c0-.4-.1-.9-.4-1.4Zm9.4-3.4l-2.7 1.5 .3 1.5 -2.5 1.3 -1.2-9.4 2.6-1.4 7.1 6.3 -2.5 1.3Zm-1.4-1.4l-2.3-2.3 .6 3.2Zm8.4-9l4-.7v0c.65-.15 1.34-.15 2 0 .5.1.9.3 1.3.7 .4.3.7.7 1 1.2l.4 1.7c.2 1 .2 1.7 0 2.2h-.001c-.09.53-.29 1.05-.6 1.5v0c-.26.37-.61.68-1 .9l-1.6.5 -4 .7Zm3 1.5l.8 4.7h.7c.5-.2 1-.3 1.1-.5 .3-.1.4-.4.5-.7v-1.6c-.2-.9-.5-1.5-.8-1.8 -.4-.3-1-.4-1.6-.2Zm8.3-3l7.3.2v2l-4.6-.2 -.1 1.4 4.2.1v1.8l-4.3-.1v1.7l4.7.2 -.1 2 -7.5-.3Zm10.6.8l2.7.6 -1.6 6.5 4.1 1 -.5 2.1 -6.8-1.6Zm14.2 4.7l3.9 2.3c.9.5 1.4 1 1.6 1.7 .1.7 0 1.4-.4 2.1h-.001c-.37.7-1.03 1.22-1.8 1.4 -.7.2-1.5 0-2.5-.6l-1.3-.7 -1.6 2.8 -2.4-1.4Zm.5 4.6l.5.4 1.1.3v-.001c.24-.05.46-.19.6-.4v-.001c.17-.23.25-.52.2-.8 -.1-.3-.3-.5-.8-.8l-.6-.4Zm7.6 10.3l-2.3-2.1 -1.3.8 -2-2 8.4-4.1 2.2 2 -3.6 8.7 -2-2Zm.9-1.8l1.4-3 -2.8 1.7Zm1 5.9l7.3-5 2.6 3.7 1 1.8 -.1 1.3c-.2.4-.5.8-1 1.1v0c-.34.29-.76.47-1.2.5v0c-.42.03-.83-.04-1.2-.2h0c-.3-.16-.57-.37-.8-.6v1.4l-.3.6 -1.4 2.5 -1.7-2.5 1.4-2.7 .3-.8c0-.2 0-.5-.2-.7l-.2-.2 -3 2Zm6-.7l.6 1 .5.4v0c.11.16.29.27.5.3 .1 0 .3 0 .5-.2v-.001c.22-.13.36-.35.4-.6l-.4-1 -.7-1Zm2.7 13.2l-1.2-2.9 -1.5.1 -1-2.5 9.4-.2 1 2.7 -6.9 6.4 -1-2.7Zm1.5-1.2l2.6-2.1 -3.3.2Zm2.3 9.6l1.8-.3 .7 4.2 -3.8.6v0c-.56-.6-1.04-1.28-1.4-2v0c-.7-1.5-.88-3.19-.5-4.8 .3-.7.7-1.2 1.4-1.7v-.001c.68-.48 1.47-.79 2.3-.9v0c.86-.17 1.76-.1 2.6.2v0c.77.28 1.44.81 1.9 1.5 .3.6.6 1.3.7 2.3v0c.11.72.11 1.47 0 2.2v0c-.06.46-.23.91-.5 1.3l-1.3 1 -.9-2.6c.3-.1.5-.3.7-.6 .1-.3.2-.7.1-1h-.001c-.04-.57-.33-1.09-.8-1.4 -.5-.3-1.2-.3-2-.2 -1 .1-1.7.4-2 .8v0c-.37.44-.52 1.03-.4 1.6l.3.9 .6.8h.8Zm5.8 12.8l-.3 2.7 -5.2-.4v0c-.49-.06-.96-.19-1.4-.4v0c-.47-.21-.88-.51-1.2-.9v0c-.28-.33-.48-.7-.6-1.1v0c-.16-.66-.19-1.34-.1-2 0-.4 0-.9.2-1.4l.4-1.2h-.001c.23-.36.54-.67.9-.9v0c.29-.24.63-.41 1-.5v0c.53-.09 1.06-.09 1.6 0l5.2.4 -.2 2.7 -5.4-.5c-.5 0-.9 0-1.2.3 -.3.3-.4.6-.5 1.1 0 .5 0 .8.3 1.1 .3.3.6.5 1.1.5Zm-9.8 9.4l1-3 -1.2-.9 .8-2.6 7.4 5.9 -1 2.8 -9.4.4 1-2.7Zm2 0h3.3l-2.7-1.8Zm3.2 7.2l-1.6 2.6H299l1.6 3 -1.6 2.6 -2.6-5.6 -3.2-1.8 1.4-2.4 3.2 1.9Z"/><path fill="#009B3A" stroke="#000" stroke-width=".1" d="M265.2 225.4s24.9 10.8 20.5 33c-4.3 22.1-18.2 22-23.6 24.4 -5.5 2.5-9.2 6-11.4 5.5 -2.1-.5-5-2.2-5-2.2s-.2 3.7 4.2 4.3c4.4.7 10-5.7 12.9-6.4 2.9-.7 19.6-2.6 23.8-25.1 4.8-24.1-21.3-32.8-21.4-33.5Z"/><path fill="#009B3A" stroke="#000" stroke-width=".1" d="M277.7 230.2v0c.32 1.76.14 2.81-.42 2.36 -.37-.3-.83-1.21-1.19-2.37v-.001c-.56-1.77-.74-3.56-.42-4.02 .32-.46 1.04.6 1.59 2.36 .17.53.31 1.1.41 1.64Zm-.8.2v0c.92 1.66 1.48 3.41 1.24 3.91 -.24.49-1.18-.46-2.11-2.12 -.24-.42-.46-.87-.64-1.3v0c-.75-1.73-.88-2.95-.29-2.73 .42.15 1.12 1.02 1.78 2.22Zm-2.5 1.6l0 0c1.84.54 3.28 1.36 3.23 1.83 -.06.46-1.6.41-3.44-.14v0c-1.85-.55-3.29-1.37-3.24-1.84 .05-.47 1.59-.42 3.43.13Z"/><path fill="#009B3A" stroke="#000" stroke-width=".1" d="M274.8 231.1v0c1.61 1.08 2.73 2.27 2.51 2.66 -.23.38-1.71-.18-3.32-1.27v0c-1.61-.95-3.07-2.24-3.27-2.89 -.2-.65.94-.41 2.55.53 .47.28.96.6 1.41.94Z"/><path fill="#009B3A" stroke="#000" stroke-width=".1" d="M275.8 230.7l0 0c1.36 1.12 2.76 2.79 3.13 3.74 .36.94-.44.8-1.81-.32 -.82-.68-1.7-1.59-2.34-2.43l-.001-.001c-1.08-1.42-1.2-2.24-.28-1.85 .33.14.77.43 1.27.84Z"/><path fill="#009B3A" stroke="#000" stroke-width=".1" d="M277.5 233.8l-1.1.6c-.3.1-.6-.3-1.2 0 -.6.4-1 1-1.2 1.3 -.1.4.2.5 1 .2 .7-.4 1-1 1.3-1.2 .3-.3 1-.6 1.3-.7l1-1.5c.2-.4 1.2-1 1.6-1.9 .3-.6.2-1.2-.3-1v-.001c-.51.36-.92.84-1.2 1.4 -.3.5 0 1-.3 1.5l-.9 1.3Zm7.8 2.6v0c.04 3.04-.46 5.38-1.12 5.22 -.67-.17-1.24-2.78-1.29-5.83v0c-.05-3.05.45-5.39 1.11-5.23 .66.16 1.23 2.77 1.28 5.82Z"/><path fill="#009B3A" stroke="#000" stroke-width=".1" d="M284 236.3v-.001c.63 2.94.62 5.36-.01 5.39 -.64.02-1.67-2.35-2.3-5.3 0 0-.01-.01-.01-.01l0 0c-.62-2.93-.61-5.3.02-5.3 .63-.001 1.65 2.36 2.27 5.29Z"/><path fill="#009B3A" stroke="#000" stroke-width=".1" d="M280 237.6l0 0c2.28 1.37 4.33 3.26 4.58 4.21 .25.95-1.4.61-3.68-.77 -.58-.35-1.16-.74-1.71-1.16l-.001-.001c-2.32-1.57-4.01-3.37-3.79-4.03 .22-.67 2.27.06 4.58 1.62 0 0 0 0 0 0Z"/><path fill="#009B3A" stroke="#000" stroke-width=".1" d="M280.8 236.4v0c1.89 2.29 3.09 4.53 2.67 5 -.42.46-2.29-1.02-4.18-3.31v0c-1.9-2.3-3.1-4.54-2.68-5.01 .41-.47 2.28 1.01 4.17 3.3Z"/><path fill="#009B3A" stroke="#000" stroke-width=".1" d="M282.4 236.3v0c1.51 2.82 2.31 5.33 1.78 5.6 -.53.27-2.18-1.79-3.69-4.61v0c-1.52-2.83-2.32-5.34-1.79-5.61 .52-.28 2.17 1.78 3.68 4.6Z"/><path fill="#009B3A" stroke="#000" stroke-width=".1" d="M283.8 241.5l-1.9.4c-.3 0-.6-.7-1.6-.5 -1 .2-1.8.9-2 1.3 -.4.4 0 .8 1.2.6 1.2-.2 1.6-1 2.2-1.1l2.1-.4 1.8-1.7c.5-.5 2-1 2.8-2 .7-.8.7-1.6 0-1.5v-.001c-.81.27-1.54.76-2.1 1.4 -.5.6-.4 1.5-1 2l-1.5 1.5Zm5.5 5.2v0c-.5 2.99-1.4 5.2-2.01 4.92 -.61-.28-.7-2.93-.2-5.93v0c.49-3 1.39-5.21 2-4.93 .6.27.69 2.92.19 5.92Z"/><path fill="#009B3A" stroke="#000" stroke-width=".1" d="M288 246.4v0c.26 2.85.03 5.86-.52 6.71 -.56.84-1.23-.78-1.5-3.64 -.11-1.11-.14-2.29-.1-3.38v0c-.15-2.98.22-5.56.82-5.76 .59-.21 1.2 2.03 1.34 5 .01.35.02.7.02 1.05Z"/><path fill="#009B3A" stroke="#000" stroke-width=".1" d="M284 246.8v0c1.95 1.92 3.34 4.03 3.08 4.71 -.26.68-2.06-.33-4.02-2.25 -.1-.09-.19-.19-.28-.28v0c-1.97-1.73-3.71-4.01-3.88-5.09 -.18-1.08 1.28-.56 3.25 1.17 .58.51 1.17 1.1 1.72 1.71Z"/><path fill="#009B3A" stroke="#000" stroke-width=".1" d="M285 245.9h0c1.45 2.67 2.23 5.15 1.74 5.54 -.5.38-2.09-1.47-3.55-4.15 -.01-.01-.01-.01-.01-.01v0c-1.5-2.5-2.54-5.23-2.34-6.1 .2-.88 1.57.44 3.07 2.93 .33.56.66 1.16.96 1.76Z"/><path fill="#009B3A" stroke="#000" stroke-width=".1" d="M286.5 246v-.001c.98 3.1 1.34 5.8.79 6.02 -.56.22-1.81-2.13-2.8-5.23v0c-.99-3.11-1.35-5.81-.8-6.03 .55-.23 1.8 2.12 2.79 5.22Z"/><path fill="#009B3A" stroke="#000" stroke-width=".1" d="M287 251.5h-2c-.3 0-.4-.8-1.4-.8 -1 0-2 .5-2.3.9 -.4.3 0 .8 1.1.8 1.2 0 1.8-.6 2.4-.7h2.1l2-1.3c.6-.4 2.3-.6 3.2-1.4 .8-.6 1-1.5.3-1.4v0c-.88.11-1.71.46-2.4 1 -.6.4-.6 1.3-1.3 1.7l-1.8 1.2m2.7 6.7v0c-1.6 2.54-3.25 4.2-3.7 3.71 -.45-.5.49-2.97 2.09-5.52v0c1.59-2.55 3.24-4.21 3.69-3.72 .44.49-.5 2.96-2.1 5.51"/><path fill="#009B3A" stroke="#000" stroke-width=".1" d="M288.6 257.4v0c-1.18 3.06-2.56 5.27-3.09 4.94 -.53-.34 0-3.09 1.18-6.15v0c1.17-3.07 2.55-5.28 3.08-4.95 .52.33-.01 3.08-1.19 6.14m-3.9-1.3v0c1 2.6 1.37 5.07.82 5.51 -.56.44-1.82-1.32-2.83-3.92v0c-1.01-2.61-1.38-5.08-.83-5.52 .55-.45 1.81 1.31 2.82 3.91"/><path fill="#009B3A" stroke="#000" stroke-width=".1" d="M286 255.7l-.001-.001c.31 3.39.07 6.27-.54 6.44 -.61.16-1.36-2.46-1.67-5.85v0c-.32-3.4-.08-6.28.53-6.45 .6-.17 1.35 2.45 1.66 5.84 0 0 0 0 0 0"/><path fill="#009B3A" stroke="#000" stroke-width=".1" d="M287.4 256.5h-.001c-.33 3.33-1.08 6-1.69 5.94 -.61-.06-.84-2.81-.52-6.15v0c.32-3.34 1.07-6.01 1.68-5.95 .6.05.83 2.8.51 6.14"/><path fill="#009B3A" stroke="#000" stroke-width=".1" d="M285.6 261.7l-1.7-.8c-.3-.2-.1-.9-1-1.3 -1-.4-2-.4-2.4-.2 -.5.2-.4.7.7 1.3 1 .5 1.8.1 2.4.4l2 .8 2.2-.4c.7 0 2.3.4 3.4 0 1-.2 1.5-1 .9-1.2v0c-.85-.28-1.75-.31-2.6-.1 -.7.2-1.1 1-1.8 1.2 -.5 0-2 .4-2.1.3m1 8.2v0c-2.61 2.23-4.99 3.47-5.33 2.75 -.34-.72 1.51-3.12 4.12-5.36v0c2.54-2.19 4.86-3.37 5.16-2.65 .3.71-1.52 3.06-4.07 5.24"/><path fill="#009B3A" stroke="#000" stroke-width=".1" d="M285.6 268.7h0c-1.89 2.74-4.28 5.14-5.33 5.36 -1.05.22-.37-1.83 1.52-4.57 .66-.98 1.43-1.95 2.19-2.81h-.001c1.88-2.75 4.27-5.15 5.32-5.37 1.04-.23.36 1.82-1.53 4.56 -.67.97-1.44 1.94-2.2 2.8"/><path fill="#009B3A" stroke="#000" stroke-width=".1" d="M281.8 265.8v0c.25 3.37-.12 6.33-.84 6.61 -.72.27-1.51-2.24-1.77-5.62v0c-.26-3.38.11-6.34.83-6.62 .71-.28 1.5 2.23 1.76 5.61"/><path fill="#009B3A" stroke="#000" stroke-width=".1" d="M283.3 265.8v0c-.87 3.24-1.96 5.04-2.46 4 -.31-.64-.32-2.22-.05-4.21v0c.44-3.29 1.52-6.7 2.41-7.63 .88-.93 1.24.98.79 4.26 -.16 1.16-.41 2.4-.72 3.55"/><path fill="#009B3A" stroke="#000" stroke-width=".1" d="M284.6 267.1v0c-1.37 3.37-2.99 5.9-3.63 5.65 -.64-.25-.05-3.19 1.32-6.56v-.001c1.39-3.43 3.03-5.97 3.67-5.7 .63.27.02 3.27-1.38 6.69"/><path fill="#009B3A" stroke="#000" stroke-width=".1" d="M281 272.3l-1.7-1.5c-.2-.3.2-1-.7-1.8h-.001c-.72-.65-1.64-1-2.6-1 -.6 0-.6.6.4 1.6s2 .8 2.5 1.3v0c.69.45 1.33.98 1.9 1.6l2.7.4c.7.1 2.3 1.3 3.7 1.3 1.2 0 2-.6 1.3-1.1v0c-.8-.57-1.73-.91-2.7-1 -.9 0-1.6.7-2.5.6l-2.4-.4m-2.4 7.8h-.001c-3.45.77-6.89.84-7.69.16 -.8-.69 1.35-1.87 4.79-2.65 1.05-.24 2.14-.42 3.18-.53h0c3.44-.78 6.88-.85 7.68-.17 .79.68-1.36 1.86-4.8 2.64 -1.06.23-2.15.41-3.19.52"/><path fill="#009B3A" stroke="#000" stroke-width=".1" d="M278.4 278.4v0c-3.51 1.27-6.23 1.59-6.08.71 .12-.79 2.49-2.28 5.57-3.52v-.001c3.5-1.28 6.22-1.6 6.07-.72 -.13.78-2.5 2.27-5.58 3.51"/><path fill="#009B3A" stroke="#000" stroke-width=".1" d="M276.1 273.5l0-.001c-1.65 3.17-3.47 5.19-4.05 4.51 -.46-.54-.04-2.6 1.04-5.12v0c1.38-3.23 3.37-6.12 4.44-6.47 1.07-.35.81 1.98-.57 5.2 -.27.61-.57 1.24-.89 1.85"/><path fill="#009B3A" stroke="#000" stroke-width=".1" d="M277.7 274.4v0c-2.58 2.91-5.2 4.91-5.86 4.47 -.67-.45.88-3.17 3.45-6.08v0c2.57-2.92 5.19-4.92 5.85-4.48 .66.44-.89 3.16-3.46 6.07"/><path fill="#009B3A" stroke="#000" stroke-width=".1" d="M278.1 276.4v0c-3 2.39-6.11 4.07-6.94 3.74 -.84-.33.91-2.55 3.91-4.95 .43-.35.87-.69 1.32-1.01v0c3.11-2.39 6.04-3.82 6.54-3.22 .49.6-1.63 3.03-4.75 5.41"/><path fill="#009B3A" stroke="#000" stroke-width=".1" d="M271.8 279.2l-.7-2.3c-.1-.5.7-1 .3-2.2v0c-.34-1.06-1.05-1.95-2-2.5 -.5-.3-1 .3-.5 1.8 .4 1.5 1.5 2 1.8 2.7l.8 2.6c.6.3 1.7 1.4 2.4 2 .7.5 1.6 2.5 3 3.3 1 .7 2 .6 1.8-.3v0c-.48-1-1.2-1.86-2.1-2.5 -.8-.6-2-.3-2.7-.9 -.5-.4-2.1-1.6-2-1.7"/><path fill="#009B3A" stroke="#000" stroke-width=".1" d="M268 285.9h-.001c-3.59.03-6.45-.78-6.39-1.83 .05-1.03 2.88-1.9 6.38-1.98l-.001 0c3.58-.04 6.44.77 6.38 1.82 -.06 1.02-2.89 1.89-6.39 1.97"/><path fill="#009B3A" stroke="#000" stroke-width=".1" d="M267.1 280v0c-2.36 3.03-4.9 4.95-5.67 4.29 -.78-.67.5-3.67 2.86-6.7v0c2.35-3.04 4.89-4.96 5.66-4.3 .77.66-.51 3.66-2.87 6.69"/><path fill="#009B3A" stroke="#000" stroke-width=".1" d="M268 283l0-.001c-3.36 1.22-5.85 1.2-5.56-.05 .21-.92 1.89-2.29 4.25-3.46v0c3.35-1.23 5.84-1.21 5.55.04 -.22.91-1.9 2.28-4.26 3.45m1.8-57v0c1.59 1.48 2.43 2.76 1.86 2.85 -.5.07-1.91-.79-3.37-2.06v0c-1.67-1.45-2.81-2.91-2.54-3.27 .26-.36 1.83.53 3.5 1.98 .18.15.36.31.53.48m-2 1.7v0c2.3.3 4.23.92 4.31 1.39 .08.46-1.72.6-4.02.3v0c-2.31-.31-4.24-.93-4.32-1.4 -.09-.47 1.71-.61 4.01-.31"/><path fill="#009B3A" stroke="#000" stroke-width=".1" d="M268.6 226.6v0c2.13 1.08 3.68 2.27 3.45 2.65 -.23.38-2.13-.18-4.26-1.26 -.01-.01-.01-.01-.01-.01v0c-2.14-1.09-3.69-2.28-3.46-2.66 .22-.39 2.12.17 4.25 1.25m-29.5 52.9s5.5 1.2 10.3 2.9c4.7 1.7 12 7.7 14 8 2.1.1 5.1-.6 6.3-3.8 -3.4 1-5.4 2.3-8.6.5 -1.1-.4-4.8-3.8-9-5.6h-.001c-3.99-1.56-8.06-2.86-12.2-3.9l-.8 1.9m5.9-49.6l6.3-3.4 -7 1.8 -.8 1.2 1.5.4"/><path fill="#009B3A" stroke="#000" stroke-width=".1" d="M251 231.4c-2.5-.4-6.3-1.3-8.7-1.5 1.7-1.8 4-4.9 5.4-6.8 -1 1.8-2.4 4.2-3 6 1.7.9 4.4 1.6 6.3 2.3"/><path fill="#009B3A" stroke="#000" stroke-width=".1" d="M243.8 230.3l5.6-4.4 -6.5 3 -.6 1.3h1.5"/><path fill="#009B3A" stroke="#000" stroke-width=".1" d="M249.8 231.3c-2.5-.4-6.2-1.3-8.6-1.5 1.6-1.9 3.8-5 5.2-7 -1 1.8-2.3 4.3-2.9 6.1 1.7 1 4.4 1.7 6.3 2.4"/><path fill="#009B3A" stroke="#000" stroke-width=".1" d="M242.9 230.6l6.6-2.7 -7.1 1.1 -1 1.2 1.5.4"/><path fill="#009B3A" stroke="#000" stroke-width=".1" d="M249 231.4c-2.4-.2-6.3-.7-8.7-.6 1.4-2.1 3.2-5.6 4.4-7.7 -.7 2-1.8 4.6-2.1 6.5 1.8.8 4.5 1.3 6.5 1.8"/><path fill="#009B3A" stroke="#000" stroke-width=".1" d="M242.2 230.7l4.5-5.5 -5.7 4.2 -.2 1.5 1.4-.3"/><path fill="#009B3A" stroke="#000" stroke-width=".1" d="M249 231.8c-2.6 0-6.8-.3-9.3 0 1.3-2.5 2.8-6.4 3.8-8.8 -.5 2.2-1.4 5.2-1.6 7.3 2 .7 5 1 7.1 1.5"/><path fill="#009B3A" stroke="#000" stroke-width=".1" d="M241.3 232v-.001c1.77-1.79 3.57-3.56 5.4-5.3l-6.5 3.7 -.5 1.5h1.6"/><path fill="#009B3A" stroke="#000" stroke-width=".1" d="M247.8 232c-2.8 0-7.2-.2-10 .1 1.8-2.7 4.4-7 6-9.7 -1 2.4-2.7 5.8-3.3 8 2 .8 5.1 1 7.3 1.5"/><path fill="#009B3A" stroke="#000" stroke-width=".1" d="M239.5 232.3l7-5.9 -8 4.2 -.7 1.7h1.7"/><path fill="#009B3A" stroke="#000" stroke-width=".1" d="M246.8 232.1c-2.8.4-7.2.9-10 1.6v0c1.64-3.37 3.15-6.81 4.5-10.3 -.6 2.5-1.7 6-2 8.3 2.1.4 5.2.3 7.5.4"/><path fill="#009B3A" stroke="#000" stroke-width=".1" d="M238.6 233.5l0-.001c1.74-2.49 3.51-4.95 5.3-7.4l-6.7 6 -.3 1.9 1.6-.5"/><path fill="#009B3A" stroke="#000" stroke-width=".1" d="M245.2 233c-2.8.3-7.2.5-10 1 1.6-2.7 3.8-7.2 5-10 -.7 2.5-2 5.9-2.4 8.2 2 .5 5.2.5 7.4.8"/><path fill="#009B3A" stroke="#000" stroke-width=".1" d="M237.6 234.3l6.8-6 -7.7 4.2 -.8 1.8h1.7"/><path fill="#009B3A" stroke="#000" stroke-width=".1" d="M244.4 233.3c-2.9.6-7.3 1.3-10 2.2 1.3-2.9 3-7.6 4-10.5 -.5 2.6-1.4 6-1.6 8.4 2.1.3 5.3-.1 7.6-.1"/><path fill="#009B3A" stroke="#000" stroke-width=".1" d="M236.5 234.6l4.3-8.1 -5.9 7v1.8l1.6-.7"/><path fill="#009B3A" stroke="#000" stroke-width=".1" d="M244.4 233.8c-3 .7-7.8 1.8-10.7 2.9 1.1-3.3 2.4-8.6 3.2-11.9 -.3 2.9-1 6.8-.8 9.4 2.3.2 5.8-.3 8.3-.4"/><path fill="#009B3A" stroke="#000" stroke-width=".1" d="M235.6 236.4l5.5-8 -7 6.5 -.3 2 1.8-.5"/><path fill="#009B3A" stroke="#000" stroke-width=".1" d="M243.2 234.7c-3 1-7.7 2.2-10.5 3.4 1-3.3 2-8.6 2.6-11.9 -.2 2.9-.6 6.8-.4 9.3 2.4.1 5.8-.6 8.3-.8"/><path fill="#009B3A" stroke="#000" stroke-width=".1" d="M234.5 237.6l4.2-9 -6 7.8v2l1.8-.8"/><path fill="#009B3A" stroke="#000" stroke-width=".1" d="M242 235.9c-3 .7-7.8 1.6-10.8 2.6 1.3-3.2 2.8-8.5 3.7-11.7 -.4 2.9-1.2 6.7-1.2 9.3 2.4.3 5.8-.2 8.3-.2"/><path fill="#009B3A" stroke="#000" stroke-width=".1" d="M233.5 238.5l6.8-7 -8 5.2 -.7 2 2-.2"/><path fill="#009B3A" stroke="#000" stroke-width=".1" d="M240.7 237.1c-3 .4-7.8.8-10.7 1.6 1.4-3.2 3.2-8.3 4.3-11.5 -.6 2.8-1.6 6.7-1.8 9.3 2.3.5 5.7.4 8.2.6"/><path fill="#009B3A" stroke="#000" stroke-width=".1" d="M232.2 237.8l4.6-8.8 -6.3 7.4v2l1.7-.6"/><path fill="#009B3A" stroke="#000" stroke-width=".1" d="M241 236c-3.3 1.4-8.4 3.3-11.5 5 1-4 2-10.2 2.7-14 -.1 3.3-.6 7.9-.3 10.8 2.7 0 6.4-1.2 9.2-1.7"/><path fill="#009B3A" stroke="#000" stroke-width=".1" d="M231.5 240.4l5.6-10 -7.3 8.5 -.2 2.4 2-.9"/><path fill="#009B3A" stroke="#000" stroke-width=".1" d="M239.8 237.3c-3.3 1.5-8.4 3.7-11.4 5.5 .8-4 1.6-10.1 2.1-14 0 3.3-.2 7.9.2 10.7 2.7-.2 6.3-1.5 9-2.2"/><path fill="#009B3A" stroke="#000" stroke-width=".1" d="M230.4 242l4-10.8 -6 9.6 .1 2.3 1.9-1.1"/><path fill="#009B3A" stroke="#000" stroke-width=".1" d="M238.3 238.2c-3.2 1.6-8.3 3.8-11.3 5.6 .8-4 1.6-10.1 2-14 .1 3.3-.1 7.8.3 10.7 2.6-.3 6.3-1.6 9-2.3"/><path fill="#009B3A" stroke="#000" stroke-width=".1" d="M229.5 243.3l6.2-9.6 -7.9 7.8 -.3 2.4 2-.6"/><path fill="#009B3A" stroke="#000" stroke-width=".1" d="M238 237.7c-2.8 2.3-7.4 5.7-10 8.3 0-4-.6-10.2-.9-14 .8 3.2 1.5 7.6 2.5 10.2 2.5-.9 5.9-3.1 8.5-4.5"/><path fill="#009B3A" stroke="#000" stroke-width=".1" d="M229.8 243.7l.7-11.4 -3 11 .8 2.2 1.5-1.8"/><path fill="#009B3A" stroke="#000" stroke-width=".1" d="M237.2 238.8c-2.9 2.3-7.5 5.6-10 8.1 0-4-.6-10-.9-13.9 .7 3.2 1.4 7.6 2.4 10.2 2.6-.9 6-3.1 8.5-4.4"/><path fill="#009B3A" stroke="#000" stroke-width=".1" d="M229 245.6h0c.96-3.71 1.96-7.41 3-11.1l-5 10.2 .3 2.3 1.8-1.4"/><path fill="#009B3A" stroke="#000" stroke-width=".1" d="M236.9 239c-2.7 2.7-7.1 6.7-9.5 9.6 -.5-4-1.7-10.3-2.4-14.1 1 3.1 2.3 7.5 3.6 10.1 2.6-1.2 5.8-3.9 8.3-5.6"/><path fill="#009B3A" stroke="#000" stroke-width=".1" d="M229 247l.6-11.8 -2.9 11.5 .9 2.2 1.5-1.8"/><path fill="#009B3A" stroke="#000" stroke-width=".1" d="M236 241c-2.9 2.4-7.5 6-10.2 8.7 0-4.2-.8-10.5-1.2-14.5 .9 3.3 1.7 7.8 2.8 10.5 2.6-1 6-3.3 8.6-4.7"/><path fill="#009B3A" stroke="#000" stroke-width=".1" d="M228.2 248.4l4.1-11.2 -6.2 10 .2 2.4 1.9-1.2"/><path fill="#009B3A" stroke="#000" stroke-width=".1" d="M236 241c-2.6 2.8-6.7 6.9-9 9.8 -.4-4.1-1.6-10.4-2.3-14.3 1 3.1 2.2 7.6 3.5 10.2 2.4-1.2 5.4-4 7.8-5.7"/><path fill="#009B3A" stroke="#000" stroke-width=".1" d="M228.4 249l-.5-11.8 -2 11.7 1.2 2 1.3-2"/><path fill="#009B3A" stroke="#000" stroke-width=".1" d="M234.7 242c-2.5 2.7-6.5 6.8-8.7 9.8 -.5-4.2-1.9-10.5-2.7-14.4 1.1 3.2 2.4 7.7 3.8 10.3 2.3-1.3 5.3-4 7.6-5.8"/><path fill="#009B3A" stroke="#000" stroke-width=".1" d="M227.7 250.2l1.3-12 -3.5 11.3 .7 2.3 1.5-1.6"/><path fill="#009B3A" stroke="#000" stroke-width=".1" d="M234.2 242.4c-2.3 3-6 7.5-8 10.6 -.8-4-2.6-10.2-3.7-14 1.3 3 3 7.4 4.5 9.9 2.2-1.5 5-4.6 7.2-6.5"/><path fill="#009B3A" stroke="#000" stroke-width=".1" d="M227.6 251.3l-.7-12 -1.5 11.9 1 2 1.2-2"/><path fill="#009B3A" stroke="#000" stroke-width=".1" d="M234 243c-2.2 3.2-5.7 8-7.5 11.2 -1-4-3.2-10.1-4.5-13.9 1.5 3 3.4 7.3 5 9.7 2.2-1.6 4.8-4.8 7-7"/><path fill="#009B3A" stroke="#000" stroke-width=".1" d="M228.4 252.4l1.2-12 -3.4 11.3 .7 2.4 1.5-1.7"/><path fill="#009B3A" stroke="#000" stroke-width=".1" d="M233.5 244.2c-1.9 3.4-4.9 8.6-6.4 12.1 -1.4-3.9-4-9.6-5.7-13.2 1.8 2.8 4 6.8 5.9 9 2-2 4.3-5.5 6.2-8"/><path fill="#009B3A" stroke="#000" stroke-width=".1" d="M228 253.4l-3.4-11.4 1.1 12 1.6 1.7 .7-2.3"/><path fill="#009B3A" stroke="#000" stroke-width=".1" d="M233.4 245.5c-2 3.4-5 8.6-6.6 12.1 -1.5-3.9-4.1-9.6-5.8-13.2 1.8 2.8 4 6.8 6 9 2-2 4.5-5.5 6.4-7.9"/><path fill="#009B3A" stroke="#000" stroke-width=".1" d="M228.1 255.6l-1.2-12 -1.1 12 1.2 2 1.1-2"/><path fill="#009B3A" stroke="#000" stroke-width=".1" d="M233.6 246.6c-2 3.4-5.2 8.4-6.8 11.9 -1.4-3.9-4-9.7-5.6-13.3 1.8 2.8 4 6.8 5.8 9 2.2-1.8 4.6-5.3 6.6-7.6"/><path fill="#009B3A" stroke="#000" stroke-width=".1" d="M228 256.5l-2.2-11.8 -.1 12.1 1.3 1.9 1-2.2"/><path fill="#009B3A" stroke="#000" stroke-width=".1" d="M232.8 248.3c-2.2 3.2-5.6 8-7.4 11.4 -1.2-4-3.5-10-5-13.6 1.7 2.9 3.7 7 5.4 9.4 2.2-1.8 4.9-5 7-7.2"/><path fill="#009B3A" stroke="#000" stroke-width=".1" d="M227 257.8l1-12 -3.3 11.4 .8 2.3 1.5-1.7"/><path fill="#009B3A" stroke="#000" stroke-width=".1" d="M232.9 248.6c-1.8 3.5-4.8 8.8-6.3 12.3 -1.5-3.8-4.4-9.4-6.2-12.9 2 2.7 4.3 6.6 6.3 8.6 2-2 4.3-5.6 6.2-8"/><path fill="#009B3A" stroke="#000" stroke-width=".1" d="M226.6 258.8l-3.7-11.2 1.4 12 1.6 1.6 .7-2.4"/><path fill="#009B3A" stroke="#000" stroke-width=".1" d="M232.4 249.5c-1.3 3.8-3.4 9.7-4.4 13.5 -2-3.4-5.7-8.3-8-11.3 2.3 2.2 5.2 5.5 7.5 7 1.7-2.3 3.4-6.4 4.9-9.2"/><path fill="#009B3A" stroke="#000" stroke-width=".1" d="M229.9 259.8l-4-11.1 1.7 11.9 1.6 1.5 .7-2.4"/><path fill="#009B3A" stroke="#000" stroke-width=".1" d="M232.4 250.7c-1.3 3.8-3.4 9.7-4.3 13.5 -2-3.4-5.8-8.2-8-11.2 2.2 2.2 5.1 5.4 7.4 7 1.7-2.4 3.4-6.5 4.9-9.3"/><path fill="#009B3A" stroke="#000" stroke-width=".1" d="M229.9 261.6l-5.2-10.3 3 11.5 1.8 1.3 .4-2.5"/><path fill="#009B3A" stroke="#000" stroke-width=".1" d="M232 251.6c-.8 4-2.2 10.1-2.7 14 -2.5-3-6.7-7.3-9.3-10 2.5 2 5.8 4.7 8.2 6 1.4-2.7 2.6-7 3.8-10"/><path fill="#009B3A" stroke="#000" stroke-width=".1" d="M230.2 263.3l-2.7-11.7 .4 12.1 1.5 1.8 .8-2.2"/><path fill="#009B3A" stroke="#000" stroke-width=".1" d="M232 252.9c-.4 4-1.3 10.3-1.3 14.3 -2.8-2.7-7.4-6.4-10.2-8.7 2.7 1.5 6.2 3.9 8.7 4.8 1.1-2.8 2-7.3 2.8-10.4"/><path fill="#009B3A" stroke="#000" stroke-width=".1" d="M230.4 264.1l-7.4-8.4 5.6 10.2 2 .7 -.2-2.5"/><path fill="#009B3A" stroke="#000" stroke-width=".1" d="M232.2 254.3c-.5 4-1.4 10.3-1.4 14.3 -2.8-2.7-7.4-6.4-10.2-8.7 2.7 1.5 6.2 3.9 8.7 4.8 1.2-2.8 2-7.2 2.9-10.4"/><path fill="#009B3A" stroke="#000" stroke-width=".1" d="M231.2 266l0 0c-1.94-3.32-3.84-6.65-5.7-10l3.6 11.3 1.9 1.2 .2-2.4"/><path fill="#009B3A" stroke="#000" stroke-width=".1" d="M232.5 256c-.3 4-.9 10.4-.8 14.4 -2.9-2.6-7.6-6-10.5-8.1 2.7 1.3 6.3 3.5 8.9 4.2 1-2.9 1.6-7.3 2.4-10.5"/><path fill="#009B3A" stroke="#000" stroke-width=".1" d="M232 268c-.2 0-7-9-7-9l5 10.6 2 .8V268"/><path fill="#009B3A" stroke="#000" stroke-width=".1" d="M232.6 257.9c-.3 4-.8 10.4-.7 14.4h0c-3.4-2.85-6.94-5.52-10.6-8 2.7 1.3 6.4 3.4 9 4.1 1-2.9 1.5-7.3 2.3-10.5"/><path fill="#009B3A" stroke="#000" stroke-width=".1" d="M232.6 269.4l-5-10.6 2.8 11.6 1.7 1.5 .5-2.5"/><path fill="#009B3A" stroke="#000" stroke-width=".1" d="M232.8 259c0 4.2.1 10.6.6 14.5 -3-2-8.1-4.9-11.2-6.6 2.8 1 6.6 2.7 9.2 3 .7-3 1-7.5 1.3-10.8"/><path fill="#009B3A" stroke="#000" stroke-width=".1" d="M233.4 269l-9-6.1 7.6 8.3 2.1.2 -.7-2.4"/><path fill="#009B3A" stroke="#000" stroke-width=".1" d="M233 259.5c.4 4.1.7 10.5 1.4 14.4h0c-3.73-2.23-7.57-4.27-11.5-6.1 2.8.8 6.7 2.3 9.3 2.6 .6-3 .6-7.6.8-10.9"/><path fill="#009B3A" stroke="#000" stroke-width=".1" d="M234.4 271.3l-7.5-8.6 5.7 10.3 2 .8 -.2-2.5"/><path fill="#009B3A" stroke="#000" stroke-width=".1" d="M233.7 261c.5 4.2 1.1 10.5 2 14.4 -3.3-1.8-8.5-4-11.8-5.5 3 .7 6.8 2 9.5 2.1 .4-3 .2-7.6.3-11"/><path fill="#009B3A" stroke="#000" stroke-width=".1" d="M235.8 272.7l-8.8-6.2 7.5 8.5h2l-.7-2.3"/><path fill="#009B3A" stroke="#000" stroke-width=".1" d="M234 262.8c.8 4 1.8 10.3 2.9 14.2 -3.4-1.6-8.7-3.3-12-4.4 2.9.4 6.9 1.3 9.5 1.2 .2-3.1-.3-7.6-.4-11"/><path fill="#009B3A" stroke="#000" stroke-width=".1" d="M236.8 274l-7.3-8.7 5.5 10.4 2 .8 -.2-2.5"/><path fill="#009B3A" stroke="#000" stroke-width=".1" d="M234.4 264c1.2 3.9 2.8 10 4.3 13.7 -3.5-1-9-2.1-12.3-2.8 2.9 0 6.9.4 9.5 0 0-3.2-1-7.6-1.5-11"/><path fill="#009B3A" stroke="#000" stroke-width=".1" d="M237.2 274l-10.2-2.2 9.7 4.8 2-.7 -1.5-1.9"/><path fill="#009B3A" stroke="#000" stroke-width=".1" d="M235.1 265.2c1.2 3.9 2.8 10 4.2 13.7 -3.5-1-9-2.1-12.3-2.8 2.9 0 7 .4 9.5 0 0-3.2-1-7.6-1.4-11"/><path fill="#009B3A" stroke="#000" stroke-width=".1" d="M238.9 275c0 .2-9.8-4.7-9.8-4.7l8.8 7.2 2-.2 -1-2.2"/><path fill="#009B3A" stroke="#000" stroke-width=".1" d="M234.6 265.9c2 3.5 4.8 9.2 7 12.5 -3.6-.3-9.2-.1-12.6 0 2.8-.7 6.8-1.2 9.2-2.2 -.6-3-2.5-7.2-3.6-10.3"/><path fill="#009B3A" stroke="#000" stroke-width=".1" d="M240.4 276.1l-10.2-2.8 9.6 5.4 2-.6 -1.4-2"/><path fill="#009B3A" stroke="#000" stroke-width=".1" d="M235.7 267.4c2 3.5 4.8 9.2 7 12.4 -3.6-.2-9.2 0-12.6.2 2.9-.7 6.9-1.3 9.3-2.3 -.8-3-2.6-7.2-3.8-10.3"/><path fill="#009B3A" stroke="#000" stroke-width=".1" d="M241.7 277l-9.5-5.7 8.3 8h2.2l-1-2.3"/><path fill="#009B3A" stroke="#000" stroke-width=".1" d="M236.4 268.3c2.3 3.3 5.7 8.6 8.2 11.6 -3.6.2-9 1.2-12.4 1.8 2.8-1 6.6-2.2 8.9-3.6 -1-3-3.3-6.8-4.7-9.8"/><path fill="#009B3A" stroke="#000" stroke-width=".1" d="M242.4 277.8l-10.2-.2 10.1 3 1.8-1.1 -1.7-1.7m6-49.6l7.3-1.3 -7.3.2 -1.3.7 1.3.4"/><path fill="#009B3A" stroke="#000" stroke-width=".1" d="M252.4 229.7c-2.1-.6-5.4-1.7-7.6-2.2l-.001-.001c2.71-1.08 5.38-2.28 8-3.6 -1.7 1-4 2.4-5.3 3.4 1.2.8 3.4 1.7 5 2.4"/><path fill="#009B3A" stroke="#000" stroke-width=".1" d="M248 228.4l7.2-2 -7.4 1 -1.1.8 1.3.2"/><path fill="#009B3A" stroke="#000" stroke-width=".1" d="M252.8 230.3c-2.5-.3-6.4-.8-8.8-.8 1.8-1.6 4.4-4.4 6-6 -1 1.5-2.8 3.6-3.5 5.1 1.7.7 4.4 1.1 6.3 1.7"/><path fill="#009B3A" stroke="#000" stroke-width=".1" d="M245.4 229l7.4-1 -7.2-.1 -1.4.6 1.2.4"/><path fill="#009B3A" stroke="#000" stroke-width=".1" d="M250.9 230.5c-2.3-.4-5.7-1.2-8-1.4 2.1-1 5.3-3 7.3-4 -1.5 1-3.6 2.5-4.7 3.5 1.4.7 3.7 1.3 5.4 2"/><path fill="#009B3A" stroke="#000" stroke-width=".1" d="M244.8 228.8l6.5-2.8 -7.2 2 -.8.8h1.5"/><path fill="#009B3A" stroke="#000" stroke-width=".1" d="M250.7 231.4c-2-.8-4.8-2.1-6.7-2.7 1.5-1.3 3.5-3.7 4.8-5.1 -1 1.4-2.3 3.3-2.8 4.7 1.2 1 3.2 2.1 4.7 3"/><path fill="#009B3A" stroke="#000" stroke-width=".1" d="M245.1 229.3l5.1-2.2 -5.5.8 -.7 1 1.1.4M241 277h-10.6l10.7 2.7 1.8-1.2 -2-1.5"/><path fill="#009B3A" stroke="#000" stroke-width=".1" d="M242.8 277.6L232 275l10.3 5 2-.6 -1.6-2"/><path fill="#009B3A" stroke="#000" stroke-width=".1" d="M244.5 278.3l-10.6-.6 10.6 3.3 1.8-1 -1.8-1.7"/><path fill="#009B3A" stroke="#000" stroke-width=".1" d="M237.8 270.8c2.7 3 6.9 7.9 9.8 10.6 -3.6.5-9 2-12.2 2.8 2.6-1.2 6.3-2.7 8.4-4.2 -1.4-2.8-4.2-6.4-6-9.2"/><path fill="#009B3A" stroke="#000" stroke-width=".1" d="M246 278.8l-10.6-3.5 10 6 2-.5 -1.4-2"/><path fill="#009B3A" stroke="#000" stroke-width=".1" d="M238.8 271.5c3 2.7 7.5 7.1 10.6 9.5 -3.4 1-8.5 3.1-11.6 4.4 2.4-1.6 6-3.5 7.8-5.3 -1.6-2.7-4.8-6-6.8-8.6"/><path fill="#009B3A" stroke="#000" stroke-width=".1" d="M246.8 279.5l-10 2 10.6.7 1.5-1.5 -2-1.2"/><path fill="#009B3A" stroke="#000" stroke-width=".1" d="M244.8 278.8l-10.5.8 10.8 1.9 1.7-1.3 -2-1.4"/><path fill="#009B3A" stroke="#000" stroke-width=".1" d="M246.7 279.4l-10.9-1.7 10.7 4.3 2-.8 -1.8-1.8Z"/><path fill="#009B3A" stroke="#000" stroke-width=".1" d="M248.5 280l-10.6.2 10.8 2.4 1.7-1.1 -2-1.5Z"/><path fill="#009B3A" stroke="#000" stroke-width=".1" d="M241.2 273c3 2.8 7.5 7.4 10.6 9.8 -3.6.8-8.8 2.6-12 3.7 2.5-1.4 6.1-3 8.1-4.7 -1.6-2.8-4.7-6.2-6.7-8.8Z"/><path fill="#009B3A" stroke="#000" stroke-width=".1" d="M250 280.4l-10.8-2.7 10.4 5.2 2-.6 -1.6-1.9Z"/><path fill="#009B3A" stroke="#000" stroke-width=".1" d="M242.2 273.6c3.3 2.5 8.1 6.6 11.4 8.7l0-.001c-3.83 1.59-7.6 3.32-11.3 5.2 2.3-1.7 5.7-3.9 7.4-5.8 -1.8-2.6-5.2-5.6-7.5-8.1Z"/><path fill="#009B3A" stroke="#000" stroke-width=".1" d="M251 281l-10 2.7h10.7l1.3-1.6 -2-1Z"/><path fill="#FEDF00" stroke="#000" stroke-width=".5" d="M264.6 266.1l-8.1-5.6 -8 5.6 3-9 -7.1-5.5h9l3.1-9 3 9h9.1l-7 5.6 3 9Z"/></svg>